<?xml version="1.0" encoding="UTF-8" standalone="no"?>
<!DOCTYPE svg PUBLIC "-//W3C//DTD SVG 1.1//EN"
 "http://www.w3.org/Graphics/SVG/1.1/DTD/svg11.dtd">
<!-- Generated by graphviz version 12.0.0 (20240704.0754)
 -->
<!-- Title: G Pages: 1 -->
<svg width="1054pt" height="314pt"
 viewBox="0.00 0.00 1053.75 314.00" xmlns="http://www.w3.org/2000/svg" xmlns:xlink="http://www.w3.org/1999/xlink">
<g id="graph0" class="graph" transform="scale(1 1) rotate(0) translate(4 310)">
<title>G</title>
<polygon fill="white" stroke="none" points="-4,4 -4,-310 1049.75,-310 1049.75,4 -4,4"/>
<!-- aws_instance.private_ec2 -->
<g id="node1" class="node">
<title>aws_instance.private_ec2</title>
<polygon fill="none" stroke="black" points="636.75,-252 465.5,-252 465.5,-216 636.75,-216 636.75,-252"/>
<text text-anchor="middle" x="551.12" y="-228.2" font-family="sans-serif" font-size="14.00">aws_instance.private_ec2</text>
</g>
<!-- aws_security_group.private_group -->
<g id="node8" class="node">
<title>aws_security_group.private_group</title>
<polygon fill="none" stroke="black" points="360.5,-306 138.25,-306 138.25,-270 360.5,-270 360.5,-306"/>
<text text-anchor="middle" x="249.38" y="-282.2" font-family="sans-serif" font-size="14.00">aws_security_group.private_group</text>
</g>
<!-- aws_instance.private_ec2&#45;&gt;aws_security_group.private_group -->
<g id="edge1" class="edge">
<title>aws_instance.private_ec2&#45;&gt;aws_security_group.private_group</title>
<path fill="none" stroke="black" d="M465.03,-249.33C433.7,-254.97 397.68,-261.46 364.22,-267.49"/>
<polygon fill="black" stroke="black" points="363.69,-264.03 354.47,-269.25 364.93,-270.92 363.69,-264.03"/>
</g>
<!-- aws_subnet.private -->
<g id="node10" class="node">
<title>aws_subnet.private</title>
<polygon fill="none" stroke="black" points="315.5,-252 183.25,-252 183.25,-216 315.5,-216 315.5,-252"/>
<text text-anchor="middle" x="249.38" y="-228.2" font-family="sans-serif" font-size="14.00">aws_subnet.private</text>
</g>
<!-- aws_instance.private_ec2&#45;&gt;aws_subnet.private -->
<g id="edge2" class="edge">
<title>aws_instance.private_ec2&#45;&gt;aws_subnet.private</title>
<path fill="none" stroke="black" d="M465.03,-234C421.59,-234 369.15,-234 326.98,-234"/>
<polygon fill="black" stroke="black" points="327.17,-230.5 317.17,-234 327.17,-237.5 327.17,-230.5"/>
</g>
<!-- aws_instance.public_ec2 -->
<g id="node2" class="node">
<title>aws_instance.public_ec2</title>
<polygon fill="none" stroke="black" points="634.12,-141 468.12,-141 468.12,-105 634.12,-105 634.12,-141"/>
<text text-anchor="middle" x="551.12" y="-117.2" font-family="sans-serif" font-size="14.00">aws_instance.public_ec2</text>
</g>
<!-- aws_security_group.web -->
<g id="node9" class="node">
<title>aws_security_group.web</title>
<polygon fill="none" stroke="black" points="331.62,-144 167.12,-144 167.12,-108 331.62,-108 331.62,-144"/>
<text text-anchor="middle" x="249.38" y="-120.2" font-family="sans-serif" font-size="14.00">aws_security_group.web</text>
</g>
<!-- aws_instance.public_ec2&#45;&gt;aws_security_group.web -->
<g id="edge3" class="edge">
<title>aws_instance.public_ec2&#45;&gt;aws_security_group.web</title>
<path fill="none" stroke="black" d="M467.82,-123.82C429.25,-124.21 383.12,-124.67 343.3,-125.07"/>
<polygon fill="black" stroke="black" points="343.45,-121.57 333.49,-125.17 343.52,-128.57 343.45,-121.57"/>
</g>
<!-- aws_subnet.public -->
<g id="node11" class="node">
<title>aws_subnet.public</title>
<polygon fill="none" stroke="black" points="312.88,-90 185.88,-90 185.88,-54 312.88,-54 312.88,-90"/>
<text text-anchor="middle" x="249.38" y="-66.2" font-family="sans-serif" font-size="14.00">aws_subnet.public</text>
</g>
<!-- aws_instance.public_ec2&#45;&gt;aws_subnet.public -->
<g id="edge4" class="edge">
<title>aws_instance.public_ec2&#45;&gt;aws_subnet.public</title>
<path fill="none" stroke="black" d="M467.82,-109C422.86,-101.35 367.64,-91.95 324.09,-84.54"/>
<polygon fill="black" stroke="black" points="324.94,-81.14 314.49,-82.91 323.77,-88.04 324.94,-81.14"/>
</g>
<!-- aws_internet_gateway.gateway -->
<g id="node3" class="node">
<title>aws_internet_gateway.gateway</title>
<polygon fill="none" stroke="black" points="351.12,-198 147.62,-198 147.62,-162 351.12,-162 351.12,-198"/>
<text text-anchor="middle" x="249.38" y="-174.2" font-family="sans-serif" font-size="14.00">aws_internet_gateway.gateway</text>
</g>
<!-- aws_vpc.main -->
<g id="node12" class="node">
<title>aws_vpc.main</title>
<polygon fill="none" stroke="black" points="102.25,-171 0,-171 0,-135 102.25,-135 102.25,-171"/>
<text text-anchor="middle" x="51.12" y="-147.2" font-family="sans-serif" font-size="14.00">aws_vpc.main</text>
</g>
<!-- aws_internet_gateway.gateway&#45;&gt;aws_vpc.main -->
<g id="edge5" class="edge">
<title>aws_internet_gateway.gateway&#45;&gt;aws_vpc.main</title>
<path fill="none" stroke="black" d="M147.38,-166.1C136,-164.54 124.67,-162.98 114,-161.51"/>
<polygon fill="black" stroke="black" points="114.6,-158.06 104.22,-160.17 113.65,-165 114.6,-158.06"/>
</g>
<!-- aws_network_acl.main -->
<g id="node4" class="node">
<title>aws_network_acl.main</title>
<polygon fill="none" stroke="black" points="326,-36 172.75,-36 172.75,0 326,0 326,-36"/>
<text text-anchor="middle" x="249.38" y="-12.2" font-family="sans-serif" font-size="14.00">aws_network_acl.main</text>
</g>
<!-- aws_network_acl.main&#45;&gt;aws_vpc.main -->
<g id="edge6" class="edge">
<title>aws_network_acl.main&#45;&gt;aws_vpc.main</title>
<path fill="none" stroke="black" d="M172.5,-29.6C160.48,-33.37 148.61,-38.37 138.25,-45 107.14,-64.9 82.29,-99.94 67.43,-124.7"/>
<polygon fill="black" stroke="black" points="64.43,-122.9 62.44,-133.3 70.49,-126.41 64.43,-122.9"/>
</g>
<!-- aws_network_acl_association.NACL_association -->
<g id="node5" class="node">
<title>aws_network_acl_association.NACL_association</title>
<polygon fill="none" stroke="black" points="705.75,-37 396.5,-37 396.5,-1 705.75,-1 705.75,-37"/>
<text text-anchor="middle" x="551.12" y="-13.2" font-family="sans-serif" font-size="14.00">aws_network_acl_association.NACL_association</text>
</g>
<!-- aws_network_acl_association.NACL_association&#45;&gt;aws_network_acl.main -->
<g id="edge7" class="edge">
<title>aws_network_acl_association.NACL_association&#45;&gt;aws_network_acl.main</title>
<path fill="none" stroke="black" d="M396.3,-18.49C376.18,-18.42 356.16,-18.35 337.68,-18.29"/>
<polygon fill="black" stroke="black" points="337.92,-14.79 327.9,-18.26 337.89,-21.79 337.92,-14.79"/>
</g>
<!-- aws_network_acl_association.NACL_association&#45;&gt;aws_subnet.public -->
<g id="edge8" class="edge">
<title>aws_network_acl_association.NACL_association&#45;&gt;aws_subnet.public</title>
<path fill="none" stroke="black" d="M445.71,-37.46C405.59,-44.56 360.67,-52.5 324.04,-58.98"/>
<polygon fill="black" stroke="black" points="323.67,-55.49 314.44,-60.67 324.89,-62.38 323.67,-55.49"/>
</g>
<!-- aws_route_table.route_table -->
<g id="node6" class="node">
<title>aws_route_table.route_table</title>
<polygon fill="none" stroke="black" points="644.25,-197 458,-197 458,-161 644.25,-161 644.25,-197"/>
<text text-anchor="middle" x="551.12" y="-173.2" font-family="sans-serif" font-size="14.00">aws_route_table.route_table</text>
</g>
<!-- aws_route_table.route_table&#45;&gt;aws_internet_gateway.gateway -->
<g id="edge9" class="edge">
<title>aws_route_table.route_table&#45;&gt;aws_internet_gateway.gateway</title>
<path fill="none" stroke="black" d="M457.74,-179.31C427.79,-179.41 394.23,-179.52 362.98,-179.62"/>
<polygon fill="black" stroke="black" points="363.08,-176.12 353.09,-179.66 363.1,-183.12 363.08,-176.12"/>
</g>
<!-- aws_route_table_association.public_association -->
<g id="node7" class="node">
<title>aws_route_table_association.public_association</title>
<polygon fill="none" stroke="black" points="1045.75,-144 741.75,-144 741.75,-108 1045.75,-108 1045.75,-144"/>
<text text-anchor="middle" x="893.75" y="-120.2" font-family="sans-serif" font-size="14.00">aws_route_table_association.public_association</text>
</g>
<!-- aws_route_table_association.public_association&#45;&gt;aws_route_table.route_table -->
<g id="edge10" class="edge">
<title>aws_route_table_association.public_association&#45;&gt;aws_route_table.route_table</title>
<path fill="none" stroke="black" d="M774.09,-144.46C735.47,-150.47 692.94,-157.09 655.53,-162.91"/>
<polygon fill="black" stroke="black" points="655.45,-159.38 646.1,-164.38 656.52,-166.3 655.45,-159.38"/>
</g>
<!-- aws_route_table_association.public_association&#45;&gt;aws_subnet.public -->
<g id="edge11" class="edge">
<title>aws_route_table_association.public_association&#45;&gt;aws_subnet.public</title>
<path fill="none" stroke="black" d="M790.13,-107.52C762.79,-103.15 733.21,-98.92 705.75,-96 571.88,-81.78 414.94,-75.86 324.64,-73.49"/>
<polygon fill="black" stroke="black" points="324.75,-69.99 314.67,-73.24 324.57,-76.99 324.75,-69.99"/>
</g>
<!-- aws_security_group.private_group&#45;&gt;aws_vpc.main -->
<g id="edge12" class="edge">
<title>aws_security_group.private_group&#45;&gt;aws_vpc.main</title>
<path fill="none" stroke="black" d="M154.34,-269.59C148.72,-267.08 143.31,-264.23 138.25,-261 107.14,-241.1 82.29,-206.06 67.43,-181.3"/>
<polygon fill="black" stroke="black" points="70.49,-179.59 62.44,-172.7 64.43,-183.1 70.49,-179.59"/>
</g>
<!-- aws_security_group.web&#45;&gt;aws_vpc.main -->
<g id="edge13" class="edge">
<title>aws_security_group.web&#45;&gt;aws_vpc.main</title>
<path fill="none" stroke="black" d="M166.85,-137.22C149.14,-139.65 130.68,-142.19 113.89,-144.5"/>
<polygon fill="black" stroke="black" points="113.48,-141.03 104.05,-145.86 114.43,-147.96 113.48,-141.03"/>
</g>
<!-- aws_subnet.private&#45;&gt;aws_vpc.main -->
<g id="edge14" class="edge">
<title>aws_subnet.private&#45;&gt;aws_vpc.main</title>
<path fill="none" stroke="black" d="M182.91,-221.6C167.94,-217.76 152.3,-212.94 138.25,-207 119.94,-199.26 101.08,-187.87 85.68,-177.55"/>
<polygon fill="black" stroke="black" points="88.06,-174.94 77.83,-172.16 84.1,-180.71 88.06,-174.94"/>
</g>
<!-- aws_subnet.public&#45;&gt;aws_vpc.main -->
<g id="edge15" class="edge">
<title>aws_subnet.public&#45;&gt;aws_vpc.main</title>
<path fill="none" stroke="black" d="M185.51,-83.75C169.76,-87.68 153.12,-92.71 138.25,-99 119.94,-106.74 101.08,-118.13 85.68,-128.45"/>
<polygon fill="black" stroke="black" points="84.1,-125.29 77.83,-133.84 88.06,-131.06 84.1,-125.29"/>
</g>
</g>
</svg>
